HIERARCHY
ROOT hip
{
  OFFSET 0 0 0
  CHANNELS 6 Xposition Yposition Zposition Zrotation Yrotation Xrotation
  JOINT abdomen
  {
    OFFSET 0 20.6881 -0.73152
    CHANNELS 3 Zrotation Xrotation Yrotation
    JOINT chest
    {
      OFFSET 0 11.7043 -0.48768
      CHANNELS 3 Zrotation Xrotation Yrotation
      JOINT neck
      {
        OFFSET 0 22.1894 -2.19456
        CHANNELS 3 Zrotation Xrotation Yrotation
        JOINT head
        {
          OFFSET -0.24384 7.07133 1.2192
          CHANNELS 3 Zrotation Xrotation Yrotation
          JOINT leftEye
          {
            OFFSET 4.14528 8.04674 8.04672
            CHANNELS 3 Zrotation Xrotation Yrotation
            End Site
            {
              OFFSET 1 0 0
            }
          }
          JOINT rightEye
          {
            OFFSET -3.6576 8.04674 8.04672
            CHANNELS 3 Zrotation Xrotation Yrotation
            End Site
            {
              OFFSET 1 0 0
            }
          }
        }
      }
      JOINT rCollar
      {
        OFFSET -2.68224 19.2634 -4.8768
        CHANNELS 3 Zrotation Xrotation Yrotation
        JOINT rShldr
        {
          OFFSET -8.77824 -1.95073 1.46304
          CHANNELS 3 Zrotation Xrotation Yrotation
          JOINT rForeArm
          {
            OFFSET -28.1742 -1.7115 0.48768
            CHANNELS 3 Zrotation Xrotation Yrotation
            JOINT rHand
            {
              OFFSET -22.5879 0.773209 7.07136
              CHANNELS 3 Zrotation Xrotation Yrotation
              JOINT rThumb1
              {
                OFFSET -1.2192 -0.487915 3.41376
                CHANNELS 3 Zrotation Xrotation Yrotation
                JOINT rThumb2
                {
                  OFFSET -3.37035 -0.52449 3.41376
                  CHANNELS 3 Zrotation Xrotation Yrotation
                  End Site
                  {
                    OFFSET -1.78271 -1.18214 1.43049
                  }
                }
              }
              JOINT rIndex1
              {
                OFFSET -7.75947 0.938293 5.60832
                CHANNELS 3 Zrotation Xrotation Yrotation
                JOINT rIndex2
                {
                  OFFSET -2.54057 -0.884171 1.56538
                  CHANNELS 3 Zrotation Xrotation Yrotation
                  End Site
                  {
                    OFFSET -1.62519 -0.234802 1.16502
                  }
                }
              }
              JOINT rMid1
              {
                OFFSET -8.24714 1.18213 3.41376
                CHANNELS 3 Zrotation Xrotation Yrotation
                JOINT rMid2
                {
                  OFFSET -3.10165 -0.590103 1.0647
                  CHANNELS 3 Zrotation Xrotation Yrotation
                  End Site
                  {
                    OFFSET -2.48547 -0.328903 0.83742
                  }
                }
              }
              JOINT rRing1
              {
                OFFSET -8.82822 0.546677 1.51678
                CHANNELS 3 Zrotation Xrotation Yrotation
                JOINT rRing2
                {
                  OFFSET -2.60934 -0.819778 -0.0198488
                  CHANNELS 3 Zrotation Xrotation Yrotation
                  End Site
                  {
                    OFFSET -2.33842 -0.294052 0.168128
                  }
                }
              }
              JOINT rPinky1
              {
                OFFSET -8.27202 -0.0477905 -0.4584
                CHANNELS 3 Zrotation Xrotation Yrotation
                JOINT rPinky2
                {
                  OFFSET -1.82734 -0.647385 -0.700984
                  CHANNELS 3 Zrotation Xrotation Yrotation
                  End Site
                  {
                    OFFSET -1.69225 -0.51767 -0.607171
                  }
                }
              }
            }
          }
        }
      }
      JOINT lCollar
      {
        OFFSET 2.68224 19.2634 -4.8768
        CHANNELS 3 Zrotation Xrotation Yrotation
        JOINT lShldr
        {
          OFFSET 8.77824 -1.95073 1.46304
          CHANNELS 3 Zrotation Xrotation Yrotation
          JOINT lForeArm
          {
            OFFSET 28.1742 -1.7115 0.48768
            CHANNELS 3 Zrotation Xrotation Yrotation
            JOINT lHand
            {
              OFFSET 22.5879 0.773209 7.07136
              CHANNELS 3 Zrotation Xrotation Yrotation
              JOINT lThumb1
              {
                OFFSET 1.2192 -0.487915 3.41376
                CHANNELS 3 Zrotation Xrotation Yrotation
                JOINT lThumb2
                {
                  OFFSET 3.37035 -0.52449 3.41376
                  CHANNELS 3 Zrotation Xrotation Yrotation
                  End Site
                  {
                    OFFSET 1.78271 -1.18214 1.43049
                  }
                }
              }
              JOINT lIndex1
              {
                OFFSET 7.75947 0.938293 5.60832
                CHANNELS 3 Zrotation Xrotation Yrotation
                JOINT lIndex2
                {
                  OFFSET 2.54057 -0.884171 1.56538
                  CHANNELS 3 Zrotation Xrotation Yrotation
                  End Site
                  {
                    OFFSET 1.62519 -0.234802 1.16502
                  }
                }
              }
              JOINT lMid1
              {
                OFFSET 8.24714 1.18213 3.41376
                CHANNELS 3 Zrotation Xrotation Yrotation
                JOINT lMid2
                {
                  OFFSET 3.10165 -0.590103 1.0647
                  CHANNELS 3 Zrotation Xrotation Yrotation
                  End Site
                  {
                    OFFSET 2.48547 -0.328903 0.83742
                  }
                }
              }
              JOINT lRing1
              {
                OFFSET 8.82822 0.546677 1.51678
                CHANNELS 3 Zrotation Xrotation Yrotation
                JOINT lRing2
                {
                  OFFSET 2.60934 -0.819778 -0.0198488
                  CHANNELS 3 Zrotation Xrotation Yrotation
                  End Site
                  {
                    OFFSET 2.33842 -0.294052 0.168128
                  }
                }
              }
              JOINT lPinky1
              {
                OFFSET 8.27202 -0.0477905 -0.4584
                CHANNELS 3 Zrotation Xrotation Yrotation
                JOINT lPinky2
                {
                  OFFSET 1.82734 -0.647385 -0.700984
                  CHANNELS 3 Zrotation Xrotation Yrotation
                  End Site
                  {
                    OFFSET 1.69225 -0.51767 -0.607171
                  }
                }
              }
            }
          }
        }
      }
    }
  }
  JOINT rButtock
  {
    OFFSET -8.77824 4.35084 1.2192
    CHANNELS 3 Zrotation Xrotation Yrotation
    JOINT rThigh
    {
      OFFSET 0 -1.70687 -2.19456
      CHANNELS 3 Zrotation Xrotation Yrotation
      JOINT rShin
      {
        OFFSET 0 -36.8199 0.73152
        CHANNELS 3 Zrotation Xrotation Yrotation
        JOINT rFoot
        {
          OFFSET 0.73152 -45.1104 -5.12064
          CHANNELS 3 Zrotation Xrotation Yrotation
          End Site
          {
            OFFSET -1.1221 -3.69964 12.103
          }
        }
      }
    }
  }
  JOINT lButtock
  {
    OFFSET 8.77824 4.35084 1.2192
    CHANNELS 3 Zrotation Xrotation Yrotation
    JOINT lThigh
    {
      OFFSET 0 -1.70687 -2.19456
      CHANNELS 3 Zrotation Xrotation Yrotation
      JOINT lShin
      {
        OFFSET 0 -36.8199 0.73152
        CHANNELS 3 Zrotation Xrotation Yrotation
        JOINT lFoot
        {
          OFFSET -0.73152 -45.1104 -5.12064
          CHANNELS 3 Zrotation Xrotation Yrotation
          End Site
          {
            OFFSET 1.1221 -3.69964 12.103
          }
        }
      }
    }
  }
}
MOTION
Frames:	9
Frame Time:	0.00833333
122.702 85.3326 0.458476 0.0 0.0 0.0 1.16874 -0.00493878 0.0322834 0.322752 -0.004724 0.0559147 1.6082e-14 0.0 1.98785e-16 4.82829e-14 3.18055e-15 5.71506e-16 -0.0 0.0 0.0 -0.0 0.0 0.0 8.04954e-15 -3.10601e-17 1.98785e-16 1.72977e-13 -6.52262e-16 3.97569e-15 2.91259e-12 -8.94929e-13 2.8625e-14 3.3335e-11 7.54288e-13 4.73903e-13 7.86282e-11 -3.03384e-13 1.06549e-12 1.35791e-10 -5.21611e-13 1.83836e-12 7.86364e-11 -2.99767e-13 1.06231e-12 7.73091 5.47488 0.417314 7.86279e-11 -3.03047e-13 1.07503e-12 2.90554 0.965183 0.102902 7.86395e-11 -3.02351e-13 1.06867e-12 10.2786 0.731801 0.0259123 7.86291e-11 -3.02153e-13 1.07503e-12 2.22167 -0.733487 -0.20892 8.05255e-15 -3.06719e-17 0.0 1.6665e-13 -5.46658e-16 1.98785e-15 2.91876e-12 8.49606e-13 1.59028e-14 3.33536e-11 -9.977e-13 4.83444e-13 7.86775e-11 -3.23073e-13 1.06867e-12 1.35861e-10 -5.62958e-13 1.83757e-12 7.8671e-11 -3.20043e-13 1.06867e-12 -7.73091 5.47488 -0.417314 7.86765e-11 -3.22429e-13 1.06549e-12 -2.90554 0.965183 -0.102902 7.86648e-11 -3.23025e-13 1.06549e-12 -10.2786 0.731801 -0.0259123 7.86804e-11 -3.23224e-13 1.05912e-12 -2.22167 -0.733487 0.20892 -2.03217e-16 0.0 -3.88251e-19 1.35594 -5.8465 -0.122722 0.00113129 5.03398 0.0413977 -0.480948 0.8111 0.0710997 2.03217e-16 0.0 3.88251e-19 0.426507 -1.91991 0.00997082 0.00898895 -2.0786 0.0740787 0.459197 3.99698 -0.132475
118.108 83.6494 -5.49154 -175.278 -87.324 -179.638 1.16878 -1.74905 1.05431 0.130695 -0.950604 0.349042 -1.99053 3.3411 -0.906359 3.57522 -5.14066 -1.15121 -0.0 0.0 0.0 -0.0 0.0 0.0 7.16743e-15 2.72052e-13 3.09378e-14 24.93 4.1196 -2.76872 -11.337 -8.23986 13.0981 0.011159 -2.34365 -0.328384 -3.04533e-11 9.24632e-12 1.25513e-11 -5.28401e-11 1.65611e-11 2.13756e-11 -3.04448e-11 9.2444e-12 1.2547e-11 7.73091 5.47488 0.417314 -3.04534e-11 9.24509e-12 1.25591e-11 2.90554 0.965183 0.102902 -3.0444e-11 9.24572e-12 1.25557e-11 10.2786 0.731801 0.0259123 -3.04552e-11 9.24698e-12 1.25628e-11 2.22167 -0.733487 -0.20892 7.13428e-15 2.72052e-13 3.06971e-14 -24.3124 2.9126 3.13096 7.81437 -4.75652 -10.6152 -0.0365133 4.24092 -0.590139 -8.58702e-11 7.769e-11 -4.85558e-11 -1.48832e-10 1.36108e-10 -8.20005e-11 -8.58757e-11 7.76914e-11 -4.85548e-11 -7.73091 5.47488 -0.417314 -8.58714e-11 7.76898e-11 -4.85579e-11 -2.90554 0.965183 -0.102902 -8.58804e-11 7.76893e-11 -4.85589e-11 -10.2786 0.731801 -0.0259123 -8.58667e-11 7.76891e-11 -4.8567e-11 -2.22167 -0.733487 0.20892 -2.03217e-16 0.0 -3.88251e-19 1.90845 -8.01829 -0.393482 0.0252717 9.76615 0.115556 -0.98447 -0.347618 -10.7029 2.03217e-16 0.0 3.88251e-19 1.42263 -7.29149 0.284085 -0.00663439 8.12241 -0.085008 0.34463 -2.68745 -0.637814
118.055 83.5865 -5.42722 -178.422 -87.4023 -176.724 1.22593 -3.603 2.14627 -0.0577096 -1.94308 0.661741 -3.96665 6.88171 -1.87983 7.10056 -10.5817 -2.41392 -0.0 0.0 0.0 -0.0 0.0 0.0 7.88979e-15 5.31572e-13 5.83899e-14 51.7086 8.3932 -5.77102 -19.2333 -15.4777 27.7388 -0.00634384 -4.81863 -0.677035 -1.402e-10 3.84098e-11 1.0699e-11 -2.42519e-10 6.75989e-11 1.78878e-11 -1.40191e-10 3.84019e-11 1.06934e-11 7.73091 5.47488 0.417314 -1.40199e-10 3.84069e-11 1.07049e-11 2.90554 0.965183 0.102902 -1.40192e-10 3.84075e-11 1.07047e-11 10.2786 0.731801 0.0259123 -1.40204e-10 3.84099e-11 1.07127e-11 2.22167 -0.733487 -0.20892 7.81782e-15 5.31573e-13 5.81041e-14 -50.3747 5.99177 6.45271 14.1945 -9.24981 -22.0752 0.0208675 8.71851 -1.22426 -2.5964e-10 1.52793e-10 -1.09307e-10 -4.49568e-10 2.6783e-10 -1.85021e-10 -2.59645e-10 1.52793e-10 -1.09305e-10 -7.73091 5.47488 -0.417314 -2.59641e-10 1.52792e-10 -1.09308e-10 -2.90554 0.965183 -0.102902 -2.59648e-10 1.52792e-10 -1.0931e-10 -10.2786 0.731801 -0.0259123 -2.59636e-10 1.52792e-10 -1.0932e-10 -2.22167 -0.733487 0.20892 -2.03217e-16 0.0 -3.88251e-19 2.46939 -10.3241 -0.680282 0.0369722 14.7693 0.197075 -1.97395 -1.45622 -22.0985 2.03217e-16 0.0 3.88251e-19 2.53483 -12.9817 0.604659 0.041057 18.9067 -0.265399 0.0873728 -9.74801 -1.21216
118.004 83.5776 -5.37182 -180.289 -87.4827 -175.088 1.35608 -5.23048 3.10986 -0.224352 -2.84204 0.936305 -5.65044 10.0132 -2.75647 10.0867 -15.3966 -3.56793 -0.0 0.0 0.0 -0.0 0.0 0.0 5.40321e-15 8.16218e-13 9.24158e-14 76.0034 12.2421 -8.47887 -23.1644 -19.4837 41.747 -0.0476327 -7.03003 -0.991785 -2.48616e-10 2.83457e-11 3.5523e-11 -4.30102e-10 5.07266e-11 6.04502e-11 -2.48607e-10 2.83327e-11 3.55165e-11 7.73091 5.47488 0.417314 -2.48616e-10 2.83414e-11 3.55273e-11 2.90554 0.965183 0.102902 -2.48611e-10 2.83419e-11 3.55297e-11 10.2786 0.731801 0.0259123 -2.48624e-10 2.83452e-11 3.55384e-11 2.22167 -0.733487 -0.20892 5.29774e-15 8.16219e-13 9.20913e-14 -73.8967 8.63291 9.48924 18.3586 -12.3093 -32.5721 0.15811 12.7173 -1.80999 -4.14966e-10 2.33716e-10 -1.47805e-10 -7.18219e-10 4.09451e-10 -2.49677e-10 -4.14969e-10 2.33714e-10 -1.47802e-10 -7.73091 5.47488 -0.417314 -4.14967e-10 2.33714e-10 -1.47805e-10 -2.90554 0.965183 -0.102902 -4.14971e-10 2.33714e-10 -1.47808e-10 -10.2786 0.731801 -0.0259123 -4.14961e-10 2.33714e-10 -1.47819e-10 -2.22167 -0.733487 0.20892 -2.03217e-16 0.0 -3.88251e-19 2.95048 -12.3608 -0.946683 0.0346852 19.2304 0.274485 -3.22915 -2.26928 -32.2788 2.03217e-16 0.0 3.88251e-19 3.57613 -18.033 0.868075 0.149147 28.5237 -0.455859 -0.250287 -16.05 -1.71386
117.939 83.5768 -5.33991 -179.76 -87.5441 -175.914 1.53187 -6.29856 3.74107 -0.357166 -3.50749 1.1146 -6.83617 12.1318 -3.3544 12.1988 -18.6721 -4.33679 -0.0 0.0 0.0 -0.0 0.0 0.0 -5.10574e-15 1.16368e-12 1.42876e-13 93.2305 15.1423 -10.292 -24.6788 -20.423 51.8344 -0.0912215 -8.5834 -1.21552 -3.53709e-10 -7.97874e-11 1.27038e-10 -6.12448e-10 -1.35921e-10 2.18138e-10 -3.53701e-10 -7.98029e-11 1.27031e-10 7.73091 5.47488 0.417314 -3.53709e-10 -7.97926e-11 1.27041e-10 2.90554 0.965183 0.102902 -3.53705e-10 -7.97922e-11 1.27045e-10 10.2786 0.731801 0.0259123 -3.53718e-10 -7.97886e-11 1.27054e-10 2.22167 -0.733487 -0.20892 -5.2314e-15 1.16368e-12 1.42529e-13 -90.3801 10.279 11.7175 20.5208 -13.6811 -39.9596 0.305008 15.5241 -2.23735 -5.24181e-10 3.29187e-10 -1.3067e-10 -9.0666e-10 5.75823e-10 -2.18423e-10 -5.24184e-10 3.29185e-10 -1.30667e-10 -7.73091 5.47488 -0.417314 -5.24182e-10 3.29185e-10 -1.3067e-10 -2.90554 0.965183 -0.102902 -5.24185e-10 3.29185e-10 -1.30673e-10 -10.2786 0.731801 -0.0259123 -5.24175e-10 3.29185e-10 -1.30686e-10 -2.22167 -0.733487 0.20892 -2.03217e-16 0.0 -3.88251e-19 3.2761 -13.7257 -1.15271 0.0254455 22.3362 0.332533 -4.32389 -2.72989 -39.3914 2.03217e-16 0.0 3.88251e-19 4.3036 -21.4891 0.949702 0.272056 35.2231 -0.619741 -0.498445 -20.4629 -1.96021
117.802 83.5793 -5.18766 -179.371 -88.1283 -176.908 1.73442 -6.56735 3.87528 -0.478588 -3.85748 1.14971 -7.45744 12.8182 -3.5307 13.3726 -19.7659 -4.46526 -0.0 0.0 0.0 -0.0 0.0 0.0 -3.22984e-14 1.73089e-12 2.36222e-13 100.178 16.8148 -10.7238 -25.1502 -20.3877 55.9132 -0.112088 -9.20972 -1.30646 -4.73406e-10 -3.73198e-10 3.33813e-10 -8.20919e-10 -6.4327e-10 5.74754e-10 -4.73398e-10 -3.73212e-10 3.33809e-10 7.73091 5.47488 0.417314 -4.73405e-10 -3.73203e-10 3.33816e-10 2.90554 0.965183 0.102902 -4.734e-10 -3.73203e-10 3.3382e-10 10.2786 0.731801 0.0259123 -4.73414e-10 -3.73201e-10 3.33828e-10 2.22167 -0.733487 -0.20892 -3.24255e-14 1.73087e-12 2.35876e-13 -96.6903 10.5826 12.7568 21.1836 -13.9589 -42.705 0.376448 16.6653 -2.41575 -5.84955e-10 4.73424e-10 -2.22575e-11 -1.01049e-09 8.26164e-10 -2.94031e-11 -5.84957e-10 4.73421e-10 -2.22557e-11 -7.73091 5.47488 -0.417314 -5.84957e-10 4.73422e-10 -2.22588e-11 -2.90554 0.965183 -0.102902 -5.84959e-10 4.73421e-10 -2.22617e-11 -10.2786 0.731801 -0.0259123 -5.84949e-10 4.73421e-10 -2.22742e-11 -2.22167 -0.733487 0.20892 -2.03217e-16 0.0 -3.88251e-19 3.40754 -14.1258 -1.26628 0.020268 23.5372 0.358341 -4.9312 -3.01308 -42.2504 2.03217e-16 0.0 3.88251e-19 4.51304 -22.6961 0.688835 0.335308 37.8368 -0.697932 -0.464768 -22.2388 -1.75339
117.8 83.5601 -5.25716 -176.848 -87.8564 -179.45 1.94485 -6.26713 3.654 -0.592932 -3.98165 1.0827 -7.69601 12.4843 -3.39958 13.9161 -19.3071 -4.11739 -0.0 0.0 0.0 -0.0 0.0 0.0 -7.11484e-14 2.44878e-12 3.59254e-13 99.6719 17.6327 -10.1299 -25.1808 -20.5729 55.7875 -0.110512 -9.17436 -1.30128 -6.02616e-10 -7.96666e-10 6.21875e-10 -1.04646e-09 -1.37574e-09 1.07166e-09 -6.02609e-10 -7.96676e-10 6.21875e-10 7.73091 5.47488 0.417314 -6.02615e-10 -7.9667e-10 6.21878e-10 2.90554 0.965183 0.102902 -6.02607e-10 -7.9667e-10 6.2188e-10 10.2786 0.731801 0.0259123 -6.02622e-10 -7.96669e-10 6.21887e-10 2.22167 -0.733487 -0.20892 -7.12635e-14 2.44873e-12 3.58927e-13 -95.6642 9.94939 12.9313 21.004 -13.7915 -42.1012 0.37181 16.6178 -2.40798 -6.10362e-10 6.5114e-10 1.50716e-10 -1.05256e-09 1.13413e-09 2.71188e-10 -6.10363e-10 6.51138e-10 1.50715e-10 -7.73091 5.47488 -0.417314 -6.10363e-10 6.51139e-10 1.50712e-10 -2.90554 0.965183 -0.102902 -6.10366e-10 6.51137e-10 1.5071e-10 -10.2786 0.731801 -0.0259123 -6.10354e-10 6.51137e-10 1.50698e-10 -2.22167 -0.733487 0.20892 -2.03217e-16 0.0 -3.88251e-19 3.40563 -13.838 -1.31235 0.0214805 23.3781 0.35931 -5.11934 -3.25444 -42.066 2.03217e-16 0.0 3.88251e-19 4.35384 -22.2961 0.184979 0.33106 37.5323 -0.696917 -0.21138 -22.1303 -1.21252
117.804 83.5497 -5.32716 -175.911 -87.4832 -180.385 2.12651 -5.77203 3.32946 -0.661757 -3.99753 0.987244 -7.73356 11.7758 -3.15576 14.0926 -18.2966 -3.61548 -0.0 0.0 0.0 -0.0 0.0 0.0 -1.05937e-13 3.01606e-12 4.62357e-13 96.1393 18.0768 -9.14293 -25.0578 -20.894 53.9882 -0.100058 -8.88458 -1.25909 -7.04821e-10 -1.19539e-09 9.07422e-10 -1.22529e-09 -2.06543e-09 1.56429e-09 -7.04816e-10 -1.19539e-09 9.07425e-10 7.73091 5.47488 0.417314 -7.0482e-10 -1.19539e-09 9.07425e-10 2.90554 0.965183 0.102902 -7.0481e-10 -1.19539e-09 9.07425e-10 10.2786 0.731801 0.0259123 -7.04825e-10 -1.19539e-09 9.0743e-10 2.22167 -0.733487 -0.20892 -1.06035e-13 3.016e-12 4.62052e-13 -91.7244 8.97391 12.7522 20.474 -13.4291 -40.1716 0.336221 16.0961 -2.3257 -5.9584e-10 7.96813e-10 3.28086e-10 -1.02563e-09 1.38625e-09 5.7882e-10 -5.9584e-10 7.96812e-10 3.28083e-10 -7.73091 5.47488 -0.417314 -5.9584e-10 7.96812e-10 3.2808e-10 -2.90554 0.965183 -0.102902 -5.95844e-10 7.9681e-10 3.28079e-10 -10.2786 0.731801 -0.0259123 -5.9583e-10 7.9681e-10 3.28068e-10 -2.22167 -0.733487 0.20892 -2.03217e-16 0.0 -3.88251e-19 3.34619 -13.3151 -1.33529 0.0251179 22.687 0.348957 -5.0512 -3.42527 -40.5745 2.03217e-16 0.0 3.88251e-19 4.09398 -21.2792 -0.309102 0.298964 36.0636 -0.663274 0.0807498 -21.2607 -0.606041
117.806 83.5469 -5.37312 -175.96 -87.1282 -180.347 2.23395 -5.45707 3.15249 -0.646303 -4.02264 0.937034 -7.75863 11.3389 -2.99195 14.193 -17.7388 -3.27145 -0.0 0.0 0.0 -0.0 0.0 0.0 -1.20947e-13 3.13141e-12 4.95918e-13 94.037 18.6293 -8.40957 -25.025 -21.1496 53.0377 -0.094781 -8.74765 -1.23914 -7.43504e-10 -1.41455e-09 1.10665e-09 -1.29365e-09 -2.44444e-09 1.90805e-09 -7.435e-10 -1.41456e-09 1.10665e-09 7.73091 5.47488 0.417314 -7.43503e-10 -1.41456e-09 1.10665e-09 2.90554 0.965183 0.102902 -7.43491e-10 -1.41456e-09 1.10665e-09 10.2786 0.731801 0.0259123 -7.43506e-10 -1.41456e-09 1.10666e-09 2.22167 -0.733487 -0.20892 -1.21031e-13 3.13141e-12 4.9562e-13 -89.2883 8.24969 12.7249 20.1047 -13.1439 -38.9346 0.316908 15.8145 -2.28141 -5.36827e-10 8.44918e-10 4.49689e-10 -9.22481e-10 1.46902e-09 7.88963e-10 -5.36827e-10 8.44918e-10 4.49686e-10 -7.73091 5.47488 -0.417314 -5.36826e-10 8.44917e-10 4.49683e-10 -2.90554 0.965183 -0.102902 -5.36832e-10 8.44915e-10 4.49682e-10 -10.2786 0.731801 -0.0259123 -5.36817e-10 8.44915e-10 4.49673e-10 -2.22167 -0.733487 0.20892 -2.03217e-16 0.0 -3.88251e-19 3.30386 -13.0096 -1.37963 0.0268379 22.2921 0.340959 -4.92714 -3.46041 -39.5135 2.03217e-16 0.0 3.88251e-19 3.95986 -20.6379 -0.556422 0.280906 35.1844 -0.645074 0.27186 -20.757 -0.187491
